<svg xmlns="http://www.w3.org/2000/svg" viewBox="0 0 48 48"><defs><style>.cls-1{fill:none;}</style></defs><g id="Layer_2" data-name="Layer 2"><g id="Layer_1-2" data-name="Layer 1"><path d="M15.41,12a20.63,20.63,0,0,1,5.93.75,19.55,19.55,0,0,1,2,.65l.71.27.71-.27c.67-.25,1.35-.47,2-.65A21.09,21.09,0,0,1,32.62,12a28.36,28.36,0,0,1,8.19,1.26.23.23,0,0,1,.19.23V36.69A1.39,1.39,0,0,1,39.58,38H39.5L38.86,38c-.68,0-1-.08-2-.08a70.41,70.41,0,0,0-8.62.52c-1.15.16-2.32.36-3.49.6l-.71.15L23.28,39c-.54-.11-2-.39-3.47-.6a53.32,53.32,0,0,0-7.51-.52c-1.37,0-2.61,0-3.78.13h-.1A1.39,1.39,0,0,1,7,36.69V13.56a.28.28,0,0,1,.2-.27A28,28,0,0,1,15.41,12m0-2a30.19,30.19,0,0,0-8.8,1.38A2.28,2.28,0,0,0,5,13.56V36.69A3.38,3.38,0,0,0,8.42,40h.23c1.17-.09,2.37-.13,3.65-.13a51.94,51.94,0,0,1,7.23.5c1.59.22,3,.52,3.35.58l1.12.24L25.12,41c1.06-.22,2.19-.42,3.35-.58a68.44,68.44,0,0,1,8.35-.5,22.52,22.52,0,0,1,2.53.13h.23A3.38,3.38,0,0,0,43,36.69V13.53a2.25,2.25,0,0,0-1.59-2.14A30.42,30.42,0,0,0,32.62,10a22.93,22.93,0,0,0-6.38.78,21.25,21.25,0,0,0-2.22.71A22.83,22.83,0,0,0,15.41,10Z"/><rect x="23" y="12" width="2" height="28"/><rect class="cls-1" width="48" height="48"/></g></g></svg>