<svg xmlns="http://www.w3.org/2000/svg" viewBox="0 0 48 48"><defs><style>.cls-1{fill:none;}</style></defs><g id="Layer_2" data-name="Layer 2"><g id="Layer_1-2" data-name="Layer 1"><path d="M24,10a4.8,4.8,0,0,1,4.5,5,4.8,4.8,0,0,1-4.5,5,4.8,4.8,0,0,1-4.5-5A4.8,4.8,0,0,1,24,10m0-2a6.78,6.78,0,0,0-6.5,7,6.78,6.78,0,0,0,6.5,7,6.78,6.78,0,0,0,6.5-7A6.78,6.78,0,0,0,24,8Z"/><path d="M34,26.15A9.54,9.54,0,0,0,32.38,25,17.1,17.1,0,0,0,24,23a17.1,17.1,0,0,0-8.38,2A9.54,9.54,0,0,0,14,26.15,5.23,5.23,0,0,0,12,30l2,9a3,3,0,0,0,3,2H31a2.74,2.74,0,0,0,3-2l2-9A5.23,5.23,0,0,0,34,26.15ZM31.72,38.72H16.28L14,30c0-2.38,4.11-5,10-5s10,2.66,10,5Z"/><rect class="cls-1" width="48" height="48"/></g></g></svg>