<svg width="55" height="56" viewBox="0 0 55 56" fill="none" xmlns="http://www.w3.org/2000/svg">
<path d="M54.5566 35.6092C50.0537 49.3904 37.1668 59.0131 21.8997 55.1319C14.3948 53.2205 7.87632 48.2596 3.89516 41.4894C-2.95214 29.8385 -0.650646 16.1376 9.82044 5.90209C20.1486 -3.89572 36.1876 -1.68519 28.3539 13.9709C31.5989 21.2663 24.8159 28.518 19.1265 27.5915C18.9049 29.6561 13.2655 33.6395 10.4208 32.2022C11.4286 49.3612 32.6638 58.196 43.3065 46.3628C44.4644 45.7864 46.9731 37.1851 42.749 35.1569C40.8549 34.3544 39.0394 36.3534 35.3227 37.3383C32.1492 39.0089 27.5176 37.3893 27.4819 33.6249C27.6177 31.9031 29.4546 31.6113 31.9419 28.4524C34.1934 24.418 36.5449 22.1272 40.4475 22.1272C41.7984 12.6358 52.3409 19.3914 45.1577 25.1548C49.5605 24.9578 56.8867 29.3059 54.5638 35.6019L54.5566 35.6092Z" fill="#E9E9E9"/>
</svg>
