<svg xmlns="http://www.w3.org/2000/svg" viewBox="0 0 48 48"><defs><style>.cls-1{fill:none;}</style></defs><g id="Layer_2" data-name="Layer 2"><g id="Layer_1-2" data-name="Layer 1"><path d="M20.81,12.79l-.6-1.38A4,4,0,0,0,16.54,9h-9A2.5,2.5,0,0,0,5,11.5v27A2.5,2.5,0,0,0,7.5,41h33A2.5,2.5,0,0,0,43,38.5v-22A2.5,2.5,0,0,0,40.5,14H22.64A2,2,0,0,1,20.81,12.79ZM40,39H8a1,1,0,0,1-1-1V12a1,1,0,0,1,1-1h8.52a2,2,0,0,1,1.83,1.19L19,13.62A4,4,0,0,0,22.64,16H40a1,1,0,0,1,1,1V38A1,1,0,0,1,40,39Z"/><rect class="cls-1" width="48" height="48"/></g></g></svg>